<svg xmlns="http://www.w3.org/2000/svg" fill="none" viewBox="0 0 150 183"><g clip-path="url(#a)"><path fill="#FF6900" d="M36.493 65.203C25.87 87.9 19.783 70.04 19.513 70.04c-4.536 6.987-9.909 22.51-9.548 28.472 8.242-2.703 8.682 11.733 3.179 14.449-10.71 5.284-8.708-7.283-9.888-7.166-1.18.117-15.416 51.508 26.462 52.559 3.7.096 20.898-2.511 24.485-1.612 6.479 1.617 1.52-.56 8.203-1.673 2.238-.374 4.593 2.312 6.53-5.58 1.938-7.891-2.055 2.399 2.238 3.72 12.117 3.72 59.986 3.285 62.637 1.304 3.918-2.946 13.98-8.374 15.843-24.005.792-6.653-7.632-25.808-7.941-21.589-.435 6.145-10.327 10.238-13.309-1.303-3.688-14.254 10.753-11.916 10.945-12.337 6.391-14.084-7.436-30.171-8.377-30.171-.248 0-7.976 13.11-9.839-1.59-1.084-8.536-5.856-17.622-10.741-24.584-.844-1.208-6.809-8.543-8.01-8.543-.762 0 1.227 11.533-4.55 11.172-8.947-.56-19.06-22.597-37.703-30.223-.126-.052 5.18 12.685-6.095 22.966-1.402 1.278-14.167 23.836-14.167 26.977"/><path fill="#FCA500" d="M111.298 156.173c26.606-5.215 14.803-25.852 14.485-25.852-.213 0-11.524 12.711-14.346.026-.87-3.85 7.21-17.147 8.782-21.067 3.252-8.117 3.6-10.712-.026-18.403-.366-.778-7.058-11.038-7.258-11.038-.131 0 0 11.785-6.918 12.72-1.184.16-1.093-4.124-1.093-5.09 0-5.031 0-10.602-.548-15.643-.479-4.315-.823-8.791-2.364-12.902-2.896-7.705-13.061-15.396-20.027-19.268-1.877-1.039-5.451-4.724-7.65-4.724-.566 0-.283.256-.366.543-.835 2.93-2.612 5.606-4.188 8.179-6.043 9.803-13.248 19.12-19.666 28.72-6.417 9.599-12.913 19.806-17.85 30.353-1.824 3.911 3.218 22.271-.87 23.614-12.121 3.993-14.394-7.596-14.485-7.566-1.306.435-7.737 39.445 16.222 39.445.183.013 75.85-1.595 78.166-2.047Z"/><path fill="#813210" d="M149.994 87.17c.048.091.091.182.135.274l-.135-.274Z"/><path fill="#8F3F1D" d="M109.178 37.183c.871.687 8.141-1.03 9.116.478 1.111 1.712-.757 5.65-.923 7.531-.548 6.314-5.751 29.467-6.674 34.912-.2 1.16-.766 2.255-.831 3.477 0 .139.048 1.342-.122 1.364-.505.056-1.89-2.52-2.094-3.011-.205-.492-2.395-2.608-2.347-2.847.34-1.569.871-3.042.967-4.697.522-9.482.113-18.99 1.715-28.42.174-1.021.997-8.943 1.193-8.787Zm-32.135 91.248c.61.23-.205-.691-.279.061-.1 1.021.3 10.029.083 10.207-.056.048-10.257 0-11.507-.113-4.401-.434-8.916-.347-13.309-.286-3.918.052-16.931.938-19.457.043-.352-.126-1.467-12.359-1.101-12.937.403.005.805.042 1.202.113 3.509.344 6.617-.13 10.144-.434 4.654-.383 9.047.739 13.666.726 7.188-.005 13.867.091 20.558 2.62Z"/><path fill="#8F3F1D" d="M33.802 138.765c-.644 5.001 1.655 9.773 2.612 14.618.65 3.233.897 6.475 1.633 9.669.705 3.042.253 7.678 1.868 10.364.34.569 2.817.435 3.265 0 .736-.73.226-5.167.353-6.171.818-6.557 1.066-20.519-.553-26.981-.557-2.229 1.741-.374.318-2.256-.37-.508-9.413.118-9.496.757Zm34.678.069c-.384.139.622 5.215.73 5.823.162.83.354 1.656.515 2.486 1.362 7.035 1.388 14.379 2.995 21.328.13.56.818 6.04 1.084 6.305.353.348 2.25-.513 2.682-.513.322 0 .949.135 1.21-.126.68-.678.113-2.511.066-3.372-.17-3.072-.17-6.24-.436-9.299-.51-5.623.065-11.268.065-16.87 0-.869.558-5.119.192-5.649-.235-.356-1.358-.069-1.742-.13-2.102-.37-5.35-.713-7.362.017Zm25.42-3.598c-.043-1.039 3.362-1.138 4.145-1.338.501-.131 1.533-.77 1.533-.257a43.794 43.794 0 0 1-.705 6.905 16.965 16.965 0 0 0-.188 4.302c.179 1.421-.139 2.86-.257 4.268-.239 2.85-.03 5.71-.383 8.53-.235 1.882-.06 3.841-.06 5.732 0 .256.265 1.781-.066 1.847-.435.091-2.39.234-2.743 0-.718-.478-.317-6.658-.317-7.64 0-1.117-.358-2.22-.514-3.311-.558-3.911.052-7.992-.51-11.907-.313-2.212.157-4.923.066-7.131Zm-3.421-91.235c1.106-.964 6.848-.052 8.233 0 1.741.048 3.456 0 5.194-.134.87-.057 3.674-.313 4.331.165.658.478-.544 2.846-.661 3.363-.083.378.082 2.395-.174 2.477-1.054.322-3.005-.039-4.102-.104a40.563 40.563 0 0 0-6.29.148c-.645.06-2.896.282-3.484-.14-.94-.682-1.406-2.476-1.846-3.506-.204-.504-1.38-2.112-1.201-2.269Zm5.607 15.14c1.537-1.177 6.296 0 8.507-.056.501 0 1.89-.435 2.29 0 .749.804-.261 7.34-.505 8.295-.104.435 0 2.008-.309 2.217-.64.404-2.133 0-2.851.043-.488.043-5.068-.313-5.382-.656-.844-.913-.64-3.511-.97-4.71-.353-1.3-1.973-4.216-.78-5.133Z"/><path fill="#632E17" d="M119.257 37.722c.313-1.095 1.506 1.625 1.741 2.477.592 2.364-1.306 6.762-1.781 9.156-1.393 6.953-2.821 13.858-3.822 20.859-.553 3.867-1.102 7.96-2.038 11.698-.117.46-.896 6.566-1.911 5.214-1.907-2.537.527-10.863.871-13.732 1.036-8.256 3.374-16.478 4.715-24.67.932-5.735 1.18-7.378 2.225-11.002Zm-20.019 95.346c1.633-.87 3.427-.535 4.985-1.669.074-.057.144-.165.235-.143.362.082-.03 1.703-.074 1.899-.457 1.933-.348 3.911-.696 5.862-.984 5.514-1.084 11.415-1.28 17.026 0 .464-.723 6.796-.788 6.848-.309.248-.871.578-1.272.869-.4.291-.988.165-1.427.435-.07.043-.493.404-.58.356-.187-.1 0-.53 0-.673.083-1.561 0-3.129 0-4.702.061-5.902-.561-12.051.349-17.856.261-1.652-.701-7.596.548-8.252Zm-21.516 5.979c.161-.434 2.099-.574 2.726-.656.627-.083 2.642-.973 3.217-.691 0 0-.383 2.134-.405 2.238-.413 2.281-.78 4.532-.975 6.879-.31 3.724.296 7.596-.113 11.298-.322 2.899-1.001 5.771-1.306 8.657-.105.964.87 4.597.33 4.949-.313.209-2.176 2.112-2.568 2.216-.805.2-.745-2.607-.745-3.098 0-3.294-.714-6.857-.174-10.086.244-1.473-.4-3.098-.4-4.584 0-3.911.135-7.992.457-11.868.087-1.278-.505-4.094-.044-5.254Zm-1.375-10.103c-.048 0 .766 9.364.574 9.673-.191.308 2.821-.578 3.248-.622 3.792-.434 7.293-2.307 11.024-2.885.117 0 .235 0 .348-.026 2.055-.526 3.984-1.134 5.995-1.738.277-.048.549-.118.814-.209.026-.139-2.198-.456-2.42-.491a23.48 23.48 0 0 1-4.354-1.338c-2.05-.778-3.949-1.678-5.96-2.556-1.18-.512-2.086-2.172-3.523-2.142-1.536.044-2.873 1.651-4.353 1.764-.523.013-1.145.6-1.393.57Z"/><path fill="#2D1F04" d="M105.334 83.107h-.044a.567.567 0 0 1-.527-.565v-.048l3.579-45.502a.57.57 0 0 1 1.136.044v.047l-3.574 45.502a.575.575 0 0 1-.57.522Z"/><path fill="#2D1F04" d="M82.699 44.414a.571.571 0 0 1-.57-.57.569.569 0 0 1 .57-.568l12.534-.044 12.913-.148a.584.584 0 0 1 .575.565.579.579 0 0 1-.161.404.576.576 0 0 1-.401.17l-12.917.148-12.539.043h-.004Zm25.025 5.993-21.207-.057a.575.575 0 0 1-.374-.959.575.575 0 0 1 .374-.184l21.202.061a.571.571 0 0 1 .571.57.568.568 0 0 1-.571.569h.005Zm-.614 9.164H90.305a.571.571 0 0 1-.57-.569.569.569 0 0 1 .57-.57h16.805a.571.571 0 0 1 .403.973.571.571 0 0 1-.403.166ZM91.837 69.948a.57.57 0 0 1-.403-.971.571.571 0 0 1 .403-.167h14.485a.573.573 0 0 1 .57.565.573.573 0 0 1-.57.573H91.837Zm19.039 22.332a.462.462 0 0 1-.109 0 .574.574 0 0 1-.353-.246c-.082-.125-.111-.277-.082-.423l7.732-39.68 2.455-11.928-1.641-2.172a.567.567 0 0 1 .531-.933.568.568 0 0 1 .379.25l1.798 2.4a.565.565 0 0 1 .1.434l-2.503 12.167-7.728 39.67a.578.578 0 0 1-.579.46Z"/><path fill="#632E17" d="m43.341 173.499 2.277-2.03.492-19.003-1.955-2.846"/><path fill="#2D1F04" d="M43.328 174.068a.573.573 0 0 1-.537-.365.568.568 0 0 1 .154-.63l2.094-1.865.479-18.577-1.85-2.69a.568.568 0 0 1 .15-.793.574.574 0 0 1 .794.15l1.95 2.842c.07.099.105.218.101.339l-.488 19.003a.565.565 0 0 1-.191.409l-2.277 2.033a.57.57 0 0 1-.379.144Z"/><path fill="#3F2719" d="M91.38 101.132c3.074-1.195 5.834-3.39 8.99-4.528 2.652-.96 5.194-.47 7.776-1.069" opacity=".23"/><path fill="#3F2719" d="M91.17 100.593c3.21-2.655 12.078-6.288 16.545-5.875l-16.544 5.875Z" opacity=".23"/><path fill="#3F2719" d="M92.338 101.015a.565.565 0 0 1-.57-.58.572.572 0 0 1 .36-.52c1.159-.434 2.108-1.395 3.11-2.398 1-1.004 2.032-2.034 3.347-2.608 1.994-.869 4.08-1.564 6.095-2.233 1.45-.478 2.952-.978 4.38-1.534a.574.574 0 0 1 .779.545.563.563 0 0 1-.177.4.568.568 0 0 1-.188.12c-1.454.564-2.969 1.064-4.437 1.55-1.989.661-4.053 1.344-5.995 2.195-1.118.491-2.033 1.408-3.004 2.377-1.04 1.039-2.12 2.117-3.483 2.651a.477.477 0 0 1-.217.035Z" opacity=".23"/><path fill="#3F2719" d="M91.354 101.949h-.052a.568.568 0 0 1-.492-.396.568.568 0 0 1-.022-.221c.165-1.808 10.013-6.544 11.237-6.9.64-.192 1.863-.435 2.777-.64.915-.204 1.45-.29 1.764-.334h.061c.348-.04.409 0 .531.139a.567.567 0 0 1-.275.96h-.061c-.291.052-3.365.635-4.475.96a45.146 45.146 0 0 0-5.66 2.751c-3.448 1.904-4.606 2.899-4.75 3.203a.58.58 0 0 1-.583.478Z" opacity=".23"/><path fill="#3F2719" d="M94.123 123.19c-1.189 0-2.382-.122-3.51-.235l-.87-.082a.572.572 0 0 1-.312-1.006.564.564 0 0 1 .195-.106.571.571 0 0 1 .221-.022l.871.087c2.43.243 5.181.521 7.306-.522 3.504-1.716 6.095-4.398 7.092-7.357a9.015 9.015 0 0 0 .357-4.467c-3.714 3.233-9.913 6.175-14.633 6.036-2.991-.096-5.224-1.391-6.443-3.746a4.672 4.672 0 0 1-.288-3.715c.81-2.525 3.357-4.568 5.29-5.554 3.818-1.938 7.597-2.451 10.649-1.447 2.373.782 4.201 2.433 5.434 4.906.218.436.411.885.579 1.343.362-.393.688-.82.97-1.273 1.838-3.042 2.282-5.589 1.25-7.17-.975-1.5-3.265-2.104-6.439-1.7a19.423 19.423 0 0 0-5.116 1.517c-.505.208-1.014.404-1.528.604-1.955.756-3.975 1.538-5.564 2.855a.579.579 0 0 1-.43.173.575.575 0 0 1-.528-.414.567.567 0 0 1 .231-.628c1.742-1.434 3.84-2.251 5.877-3.042.505-.196 1.01-.391 1.507-.595a20.265 20.265 0 0 1 5.407-1.595c3.631-.46 6.309.326 7.541 2.207 1.28 1.969.844 4.946-1.232 8.379-.445.71-.971 1.366-1.568 1.955.47 1.898.386 3.89-.243 5.741-1.102 3.246-3.897 6.166-7.667 8.013a9.996 9.996 0 0 1-4.406.86Zm2.651-21.502a15.383 15.383 0 0 0-6.861 1.83c-1.877.952-4.062 2.833-4.724 4.884a3.587 3.587 0 0 0 .218 2.847c1.036 1.99 2.877 3.041 5.468 3.128 4.824.148 10.971-3.107 14.284-6.175a11.04 11.04 0 0 0-.705-1.738c-1.088-2.173-2.695-3.65-4.789-4.345a9.262 9.262 0 0 0-2.89-.431Z" opacity=".23"/><path fill="#CAA77A" d="M41.277 33.498c-1.023 0-3.709 5.263-4.31 6.332-4.484 7.93-2.843 17.186.719 25.104.91 2.03.5 2.668 1.436 4.563.436.869 1.95 2.911 1.95 3.841v.621a11.716 11.716 0 0 0-.617-2.172c-.1-.205-.536-.622-.305-.622.117 0 .27.33.305.435.992 2.503-.131 5.693.513 8.3.436 1.816 3.862 3.98 5.747 4.458 7.123 1.8 14.315-.104 21.45-.104 1.786 0 6.936.565 8.417-.934 1.262-1.273 1.654-2.916 2.669-4.346 1.375-1.947 4.98-.734 7.187-1.63 2.282-.92 4.724-3.91 6.966-3.35.575.144 2.308.87 2.874.309.931-.939 1.362-3.694 1.127-4.876-.627-3.172-.435-7.822-1.023-10.89a38.485 38.485 0 0 0-1.95-6.123c-3.048-7.97-7.288-14.453-14.063-19.433-1.698-1.247-4.528-3.45-6.465-4.428-1.937-.978-3.97-.917-5.847-1.864-2.473-1.252-5.16-2.86-7.802-3.529-.67-.17.266 1.017.205 1.143-.061.126-1.742.148-1.95.1-2.212-.435-4.454-.396-6.566-1.347-.353-.157-1.637-1.49-2.055-1.347-1.25.434.618 3.941.618 3.941a2.113 2.113 0 0 0-.309-.435c-.605-.486-1.99-.869-2.773-1.034-1.668-.339-2.373.748-3.796 1.034-.192.04-1.846.479-1.846.522 0 .352 2.668.773 2.668 1.138 0 .366-.583.192-.718.209-.788.113-5.255 2.016-4.928 3.012.143.434 2.512.434 2.977.725.131.054.27.089.41.104 0 0-1.86.287-2.77.518-1.14.286-3.195 2.46-1.157 2.46M30.08 90.442c.091-.265.17-.947.383-.76a18.228 18.228 0 0 0 10.227 4.42c.435 1.411.387 2.52 1.219 3.35.283.282 1.106.3 1.223.76.118.46-1.628 2.833-1.833 3.659a14.648 14.648 0 0 0 .153 6.853c1.371 5.467 6.426 5.041 9.77 8.378.944.943 1.236 2.964 1.523 4.115.057.222-.144 1.982.153 1.982.831 0 1.55-3.22 2.137-3.811 3.174-3.168 4.79-7.444 9.77-8.691 4.71-1.174 9.84 1.234 14.345 2.133 2.895.578 6.2 2.642 9.465 1.826 4.202-1.048 4.271-3.586 4.271-7.614 0-1.095-.435-3.88-.361-3.88 12.517.304 20.484-8.587 20.049-8.157-.74.743 1.48 4.937 1.68 5.94a23.21 23.21 0 0 1-.305 10.664c-.409 1.626.405 3.555 0 5.18-1.832 7.375-8.498 18.017-17.68 15.727-3.196-.796-5.581-2.416-8.877-3.073a14.73 14.73 0 0 1-3.44-1.681c-2.229-1.673-7.462-.535-9.382 1.377a53.715 53.715 0 0 0-8.241 10.816c-.736 1.226-1.772 2.66-2.134 4.111-.087.339.214 1.13-.152 1.373-.366.244-9.63-.213-9.77-.304-1.45-.965.388-12.167-1.68-12.167-.436 0 0 2.942 0 3.198 0 1.304.466 9.126 0 9.599-.34.339-2.225-.056-2.747.152-1.307.526-5.225 1.96-6.41.761-1.035-1.03-1.627-3.146-1.984-4.567-.597-2.382-2.926-3.911-3.51-6.249-.73-2.916-1.867-5.649-2.612-8.531-.435-1.829-1.045-5.379-.152-7.161.044-.083.292-.469.152-.608-.87-.869-1.985 2.894-6.717 1.525-6.009-1.738-4.707-8.774-4.31-10.751 1.096-5.475 2.612-12.194 5.076-17.126.361-.712.64-2.581.7-2.768Z"/><path fill="#B6B1AE" d="M47.634 121.217c.2-.386 4.62-2.659 4.789-1.525.322 1.934-.152 4.007-.152 5.945.003.916.054 1.831.152 2.742.4-.2 1.885-8.144 3.047-8.535 1.163-.391 4.973 1.569 6.096 2.134.078.043.579.213.457.434-1.084 2.173-4.014 4.507-5.19 6.858-.17.339-2.312 3.872-2.442 3.806-.13-.065-3.187-6.318-3.814-7.157-.627-.838-3.361-3.893-2.943-4.702Zm6.639 24.757c.03-.117 8.925.148 9.143.378-.12.366-.265.723-.435 1.069-1.076 2.147-2.047 4.45-3.51 6.397-1.305 1.738-1.81 3.763-2.747 5.649-.082.161-.143.513-.457.304-2.068-1.373-1.25-5.462-1.68-7.618-.375-1.855-.81-4.315-.314-6.179Zm-10.148 2.281c.165-.282 7.732-2.607 8.315-1.447.732 1.465.597 11.142-.304 12.494-.38.569-2.177-1.408-2.443-1.678-1.41-1.408-4.353-6.418-5.342-8.378-.091-.182-.313-.843-.226-.991Z"/><path fill="#FFDB1F" d="M29.126 88.322c-.953-1.908.183-4.433.436-5.406 1.027-4.102 4.88-6.953 8.707-7.922.806-.2 2.277.052 2.747.76.34.509-1.306.413.531 1.543 1.838 1.13 2.264 1.086 4.59 1.664 2.324.578 3.482.743 5.507 1.252 4.414 1.112 12.477 1.49 16.605.665 6.761-1.352 9.904-1.7 16.544-3.355 2.934-.735 5.82-5.137 9.142-4.307.64.161 4.15.209 5.59.917 1.442.709 2.935 2.173 5.26 3.911 1.554 1.165 2.547 3.729 3.836 5.02 1.105 1.103.87 1.877 1.741 3.041 1.036 1.382 3.648 6.267 2.673 8.218-.527 1.056-7.662 9.851-21.09 8.517-.278-.026.075-.313-.278-.139-.352.174.436.869.436.912a4.191 4.191 0 0 1 .762 3.203c-.636 2.551-.806 5.649-3.41 6.671-5.259 2.098-15.433-3.451-21.655-2.564-3.975.569-6.93 1.951-10.07 4.458-1.376 1.1-2.107 4.233-3.326 5.45-.079.078-.196.186-.305.152-.318-.109-.553-1.304-.61-1.526-.295-1.186-1.854-2.385-2.694-3.224-2.112-2.103-6.352-2.925-8.142-5.306-1.467-1.951-.692-10.338.353-12.993-1.332-.756-1.615-2.173-2.177-3.698-4.262-.087-11.093-4.685-11.703-5.915Z"/><path fill="#2D1F04" d="M92.024 100.167a.57.57 0 1 1 0-1.138c9.43-.16 13.061-2.13 16.479-5.715a.58.58 0 0 1 .4-.176.569.569 0 0 1 .585.556.566.566 0 0 1-.158.407c-3.626 3.807-7.453 5.901-17.284 6.084l-.022-.018Zm-54.491-9.764h-.096c-3.104-.508-6.817-2.686-8.45-4.954a.568.568 0 0 1 .333-.887.571.571 0 0 1 .594.222c1.454 2.02 4.911 4.037 7.71 4.498a.57.57 0 0 1-.09 1.13v-.009Z"/><path fill="#3F2719" d="M43.05 98.681c7.331-1.481 18.877-2.081 26.33-.843 2.269.378 10.994 4.802 11.99 2.808 1.538-3.069-5.415-3.112-6.743-3.555-7.04-2.342-16.305-2.525-23.61-1.304-1.198.191-8.917 3.085-7.968 2.894Zm48.909 5.237c1.563 7.752-10.062 9.125-12.46 8.508-1.698-.434-3.048-.934-4.872-.934-.248 0-.749-.248-.749 0 0 .139.24.156.374.187 2.177.539 4.41.695 6.557 1.125 2.564.509 4.136 2.286 7.61 1.447 2.277-.547 7.362-6.418 3.54-10.333Zm-25.905 7.674c-10.279 4.619-21.028 3.042-24.41-2.716 1.575 3.185 6.652 6.892 9.186 8.791 1.488 1.112 2.085 3.129 2.433 4.863.122.608-.278 2.424 0 1.868 2.033-4.054 2.79-8.256 7.401-11.007.84-.526 6.261-2.19 5.39-1.799Zm9.23 11.963c.436-.308-1.806.504-2.342.843a14.476 14.476 0 0 0-3.561 3.555c-1.85 2.459-7.402 13.767-11.62 12.719a5.478 5.478 0 0 1-4.31-4.302c-.1-.408-.244-3.368-.937-3.368-.24 0-.304 3.199-.374 3.555-.366 1.812-1.41 2.342-2.612 3.555-1.929 1.925-4.99.904-7.119.373-.296-.073-2.55-1.738-2.612-1.686-.235.235 2.351 4.507 2.612 5.054 2.691 5.367 4.711 10.864 8.995 15.149 1.968 1.968 1.668-3.103 1.498-4.115-.305-1.834-1.646-14.084.374-14.588.662-.166.31 3.154.405 3.802.553 3.885.518 8.3 1.472 12.094.109.434.814 4.78 1.872 3.554 1.193-1.382 3.522-8.109 5.185-11.363 2.865-5.615 6.3-9.504 9.056-15.01 1.45-2.89 4.593-5.215 7.684-5.984a12.536 12.536 0 0 1 3.187-.373c.122 0 .374.121.374 0 0-.77-8.137-2.782-7.227-3.464Z" opacity=".23"/><path fill="#3F2719" d="M91.166 113.169c20.898 10.46 21.617-35.485 1.076-39.644-.314-.065.618-.187.936-.187 2.029 0 3.722.17 5.62 1.121 5.107 2.547 8.381 7.6 11.808 12.168 1.197 1.59 2.56 5.497 2.063 7.479-.174.69-1.127.938-.94 1.686.675 2.69 2.329 5.101 2.612 8.039.188 1.86-.365 3.967 0 5.801.266 1.304.845 2.712.562 4.115-.758 3.772-3.082 6.758-4.497 10.286-1.698 4.237-4.52 7.674-8.995 8.791-1.92.478-4.354-.821-6.183-1.121-9.517-1.582-17.728-7.605-26.992-9.912-5.373-1.343-8.39 2.946-11.62 6.171-.358.356-2.752 5.297-3 5.049-1.816-1.812-1.123-8.395-.366-10.294.727-1.817 3.831-6.28 4.928-6.554-2.612 6.953 22.844 2.173 19.701-3.689 3.326-.426 10.68 3.477 13.287.695Z" opacity=".23"/><path fill="#3F2719" d="M26.092 103.635c1.023-3.211-1.232 4.294-1.306 4.867-.231 1.608-.114 3.272-.375 4.863-2.373 14.21 11.677 6.262 16.98 4.502 3.021-1.008 7.401 5.866 8.729 8.504a34.263 34.263 0 0 0 2.08 3.112c.436 0 3.227-7.388 1.82-6.019-1.406 1.369-1.136-6.019-3.918-7.674-2.782-1.656-8.05-5.019-8.21-4.876-12.256 11.103-18.386.83-15.8-7.279Z" opacity=".23"/><path fill="#FFDBAF" d="M36.362 49.607c.87-3.542 3.013-7.53 6.143-8.113 3.68-.687 7.149-2.455 10.702-2.725 2.612-.2 2.346-2.338 2.346-2.338s2.05 1.426 3.945 2.551c2.394 1.421 4.401 1.447 6.818.709 8.058-2.46 12.839-1.1 17.131 6.765.802 1.465 5.477 15.027.053 23.923a14.2 14.2 0 0 1-4.811 4.78c-8.738 5.323-27.681 7.035-36.35-4.033-4.04-5.193-7.566-14.914-5.977-21.519Z"/><path fill="#9D7B51" d="M54.051 55.417c-2.925-1.477-6.726 7.044-6.53 9.195.67 7.822 12.756 9.865 18.56 5.089 6.186-5.089-2.286-16.848-7.376-14.775m-23.161-4.089c-1.585 2.92 2.8 14.67 4.005 15.587.932.704 15.282-9.586 9.104-25.673-.262-.678-8.307 3.207-9.352 3.42-1.48.295-3.109 5.467-3.757 6.666Z"/><path fill="#9D7B51" d="M67.574 40.577C57.79 63.361 83.426 68.879 85.568 64.886c1.88-3.507 1.267-12.168-2.177-18.208-.335-.59-4.598-5.788-5.225-5.684-5.046.856-9.09-.347-10.592-.417Zm-38.539 64.518a.873.873 0 0 1-.84-.869v-2.451a.838.838 0 0 1 1.676.009v2.455a.844.844 0 0 1-.512.79.84.84 0 0 1-.324.066Zm2.385-1.438a.85.85 0 0 1-.594-.25.838.838 0 0 1-.241-.597v-2.456a.838.838 0 0 1 .84-.834.871.871 0 0 1 .84.869v2.451a.84.84 0 0 1-.844.817Zm76.948 17.547a.841.841 0 0 1-.836-.869v-2.451a.83.83 0 0 1 .845-.838.87.87 0 0 1 .84.869v2.451a.85.85 0 0 1-.25.594.838.838 0 0 1-.599.244Zm-3.187-1.655a.855.855 0 0 1-.602-.258.836.836 0 0 1-.234-.611v-2.451a.847.847 0 0 1 .845-.835.855.855 0 0 1 .602.258.836.836 0 0 1 .234.611v2.451a.847.847 0 0 1-.845.835Zm-14.72-48.027a.845.845 0 0 1-.84-.87v-2.45a.842.842 0 0 1 .84-.835.845.845 0 0 1 .836.848v2.45a.838.838 0 0 1-.836.857Zm2.547-1.526a.842.842 0 0 1-.836-.869v-2.45a.842.842 0 0 1 1.62-.314.833.833 0 0 1 .06.322v2.455a.843.843 0 0 1-.844.856Zm-28.086 65.466a.838.838 0 0 1-.835-.869v-2.451a.84.84 0 0 1 .844-.834.846.846 0 0 1 .594.247.844.844 0 0 1 .242.596v2.455a.845.845 0 0 1-.845.856Zm-2.799 1.634a.846.846 0 0 1-.594-.247.845.845 0 0 1-.242-.596v-2.455a.84.84 0 0 1 .84-.835.873.873 0 0 1 .84.869v2.451a.838.838 0 0 1-.844.813Zm-23.697-6.484a.868.868 0 0 1-.84-.869v-2.451a.84.84 0 0 1 1.615-.313.834.834 0 0 1 .06.322v2.455a.84.84 0 0 1-.835.856Z"/><path fill="#3F2719" d="M36.092 34.55c1.742 0 3.126-.8 4.815-1.195.47-.109 1.442-.63 1.442-.144 0 .109-.196.087-.288.144a9.693 9.693 0 0 0-3.457 3.641c-.283.517-1.053 1.951-.87 1.604 3.987-7.283 23.113-11.811 36.971-3.407a32.26 32.26 0 0 1 1.877 1.238c8.076 5.828 13.875 16.566 12.86 34.49-.026.435-.796 3.734-.383 3.873.871.291 4.254-2.199 5.33-1.795.478.183 2.176 1.226 2.542.978.622-.435.2-2.755.291-3.477 2.217-18.12-16.374-38.536-18.006-39.457-6.196-3.477-18.874-7.353-19.157-7.427-.052 0-1.158.683-1.741.583-2.072-.348-4.402-1.143-6.483-1.739-.318-.09-2.238-1.594-2.303-1.455-.235.473-.374 3.111-.148 3.476.166.282 1.189-.143.87-.143-2.672 0-6.042.869-8.929 1.455-.104 0-.287.035-.287.144 0 .838 3.744.287 3.744.869 0 .413-5.194 1.899-5.908 2.473-.209.173-1.053.825-.87 1.02.692.696 2.398-.169 3.313.292" opacity=".23" style="mix-blend-mode:multiply"/><path fill="#2D1F04" d="M41.151 77.996a.471.471 0 0 1-.109 0 .566.566 0 0 1-.435-.664 3.4 3.4 0 0 0 0-.63.602.602 0 0 1-.6 0c-.436-.253-.284-.692-.153-1.122.045-.135.082-.273.113-.412.071-.578.113-1.158.126-1.739h-.048a.605.605 0 0 1-.435-.334 2.255 2.255 0 0 1-.087-1.282c.027-.175.038-.353.03-.53a6.552 6.552 0 0 0-.792-1.99l-.261-.51c-6.317-12.775-6.818-23.117-1.493-30.748.256-.365.505-.739.753-1.117 1.062-1.595 2.177-3.25 3.83-4.376a.572.572 0 0 1 .881.58.57.57 0 0 1-.24.363c-1.485 1-2.52 2.56-3.518 4.063-.257.383-.51.765-.77 1.139-5.072 7.261-4.541 17.217 1.58 29.593.078.156.165.321.252.486.432.73.74 1.526.91 2.356.025.274.014.55-.03.821v.035a.672.672 0 0 1 .152.03.657.657 0 0 1 .396.504c.073.82.057 1.644-.047 2.46.822.278.57 2.581.566 2.607a.57.57 0 0 1-.57.418Z"/><path fill="#2D1F04" d="M35.491 35.514a.614.614 0 0 1-.317-.09.626.626 0 0 1-.305-.553c0-.93 3.213-2.733 5.129-3.724l-.24.026c-1.054.122-2.142.244-2.79-.243a.627.627 0 0 1-.24-.53c.039-.622 1.454-1.443 1.92-1.708l.731-.435a11.712 11.712 0 0 1 2.652-1.303h-.436c-1.127-.057-1.532-.087-1.785-.344a.607.607 0 0 1-.152-.573.643.643 0 0 1 .505-.435 13.573 13.573 0 0 1 2.904-1.064c1.676-.396 5.024-.896 6.966-.244a.57.57 0 1 1-.366 1.078c-1.476-.495-4.319-.204-6.335.274-.27.065-.535.139-.805.221 1.34.096 2.438.305 2.438 1.208a.918.918 0 0 1-.283.683c-.374.347-.945.317-1.502.282a3.045 3.045 0 0 0-.762 0c-.865.298-1.688.709-2.447 1.221-.252.152-.5.304-.753.435-.16.095-.435.278-.718.469.37 0 .792-.06 1.127-.1a6.002 6.002 0 0 1 1.92-.035h.127a1.048 1.048 0 0 1 .81.4.671.671 0 0 1 .06.57.835.835 0 0 1-.731.525h-.061a31.368 31.368 0 0 0-4.11 2.251l.37-.126c.187-.065.383-.134.592-.195.331-.096.623-.161.901-.222a5.963 5.963 0 0 0 1.56-.517.573.573 0 0 1 .802.685.57.57 0 0 1-.285.332 7.191 7.191 0 0 1-1.828.608c-.257.057-.527.117-.832.209a6.81 6.81 0 0 0-.527.174 6.743 6.743 0 0 1-.87.265 9.014 9.014 0 0 1-.597.104 6.74 6.74 0 0 0-.731.143l-.127.07c-.172.117-.37.19-.579.208ZM86.3 53.996a1.657 1.657 0 0 1-1.612-1.36c-.091-.504-2.516-12.45-18.063-11.329a1.657 1.657 0 0 1-1.777-1.527 1.65 1.65 0 0 1 1.537-1.767c9.635-.695 14.99 3.129 17.785 6.462a17.852 17.852 0 0 1 3.775 7.578 1.647 1.647 0 0 1-.928 1.788c-.22.102-.459.155-.7.155h-.018Z"/><path fill="#2D1F04" d="M33.85 55.821a1.659 1.659 0 0 1-1.607-1.951c.053-.265 1.272-6.623 6.583-11.016 3.048-2.507 6.779-3.863 11.124-4.02a1.656 1.656 0 0 1 1.651 1.593 1.65 1.65 0 0 1-1.533 1.706c-3.597.134-6.666 1.23-9.143 3.267-4.371 3.586-5.434 9.017-5.434 9.074a1.66 1.66 0 0 1-1.641 1.347Z" opacity=".95"/><path fill="#251707" d="M52.035 55.938c-.052-1.112 2.108-2.125 4.824-2.26 2.717-.134 4.968.661 5.024 1.774.057 1.112-2.107 2.12-4.823 2.255-2.717.135-4.977-.647-5.025-1.769Z"/><path fill="#2D1F04" d="M50.076 82.26a.57.57 0 0 1-.57-.57v-1.025a.569.569 0 0 1 .974-.403.57.57 0 0 1 .167.403v1.025a.569.569 0 0 1-.57.57Zm-15.721 8.682a.562.562 0 0 1-.53-.357.569.569 0 0 1 .008-.438l.404-.939a.565.565 0 0 1 .75-.3.574.574 0 0 1 .3.748l-.405.943a.58.58 0 0 1-.527.343Zm62.428 10.586a.57.57 0 0 1-.549-.435l-.274-.986a.571.571 0 0 1 .617-.749.572.572 0 0 1 .48.444l.274.987a.567.567 0 0 1-.396.704.661.661 0 0 1-.152.035Zm2.682-.678a.575.575 0 0 1-.549-.435l-.274-.986a.57.57 0 0 1 .832-.649.57.57 0 0 1 .27.345l.274.986a.573.573 0 0 1-.4.7.615.615 0 0 1-.153.039Zm-22.87-19.503a.571.571 0 0 1-.57-.57v-1.025a.569.569 0 0 1 .973-.402.568.568 0 0 1 .167.402v1.026a.568.568 0 0 1-.57.569Zm-3.993.743a.571.571 0 0 1-.57-.57v-1.025a.569.569 0 0 1 .974-.402.57.57 0 0 1 .167.402v1.026a.564.564 0 0 1-.57.569Zm-19.117.582a.571.571 0 0 1-.57-.569v-1.026a.57.57 0 0 1 .974-.402.569.569 0 0 1 .167.402v1.026a.568.568 0 0 1-.57.57Zm1.912.165a.571.571 0 0 1-.57-.569v-1.025a.569.569 0 0 1 .973-.403.568.568 0 0 1 .167.403v1.025a.568.568 0 0 1-.57.57ZM71.592 50.08l-.383-.038.383.039Z"/><path fill="#fff" d="M43.454 48.49a4.886 4.886 0 0 1 3.452 1.41 4.867 4.867 0 0 1 1.446 3.431v.317a4.884 4.884 0 0 1-1.484 3.363 4.903 4.903 0 0 1-6.823 0 4.885 4.885 0 0 1-1.484-3.363v-.317a4.863 4.863 0 0 1 1.443-3.43 4.881 4.881 0 0 1 3.45-1.41Z"/><path fill="#2D1F04" d="M43.454 59.08a5.46 5.46 0 0 1-3.85-1.584 5.44 5.44 0 0 1-1.61-3.835v-.33a5.449 5.449 0 0 1 1.654-3.756 5.47 5.47 0 0 1 7.617 0 5.449 5.449 0 0 1 1.653 3.756v.317a5.44 5.44 0 0 1-1.605 3.845 5.46 5.46 0 0 1-3.859 1.587Zm0-10.025a4.323 4.323 0 0 0-3.051 1.252 4.307 4.307 0 0 0-1.276 3.037v.317a4.32 4.32 0 0 0 1.315 2.969 4.336 4.336 0 0 0 6.029 0 4.32 4.32 0 0 0 1.315-2.969v-.33a4.307 4.307 0 0 0-1.282-3.03 4.323 4.323 0 0 0-3.05-1.246Z"/><path fill="#fff" d="M75.441 47.934a4.884 4.884 0 0 1 3.455 1.415 4.868 4.868 0 0 1 1.439 3.439v.317A4.88 4.88 0 0 1 78.9 56.56a4.899 4.899 0 0 1-6.92 0 4.88 4.88 0 0 1-1.434-3.454v-.317a4.859 4.859 0 0 1 1.44-3.44 4.877 4.877 0 0 1 3.454-1.414Z"/><path fill="#2D1F04" d="M75.441 58.546a5.456 5.456 0 0 1-3.852-1.583 5.436 5.436 0 0 1-1.608-3.836v-.317c0-1.446.576-2.832 1.6-3.854a5.465 5.465 0 0 1 7.72 0 5.444 5.444 0 0 1 1.6 3.854v.317a5.435 5.435 0 0 1-1.608 3.836 5.456 5.456 0 0 1-3.852 1.583Zm0-10.025a4.323 4.323 0 0 0-3.052 1.252 4.307 4.307 0 0 0-1.276 3.037v.317a4.32 4.32 0 0 0 1.316 2.968 4.336 4.336 0 0 0 6.028 0 4.32 4.32 0 0 0 1.316-2.968v-.317a4.31 4.31 0 0 0-2.676-3.986 4.33 4.33 0 0 0-1.656-.325v.022ZM56.785 61.475c-1.245 0-2.15-.722-2.277-1.847a.563.563 0 0 1 .503-.624.568.568 0 0 1 .625.502c.091.839.997.87 1.276.839.64-.04 1.332-.391 1.328-.895a.564.564 0 0 1 1.127-.005c0 1.226-1.232 1.96-2.395 2.025l-.187.005ZM30.171 89.956a1.788 1.788 0 0 1-1.328-.665c-.526-.644-.648-1.643-.37-2.968.928-4.346 2.774-7.588 5.49-9.604a10.666 10.666 0 0 1 6.318-2.147.571.571 0 0 1 .57.57.569.569 0 0 1-.57.569c-1.968 0-8.556.782-10.689 10.864-.2.93-.157 1.642.122 1.998a.658.658 0 0 0 .466.261.58.58 0 0 1 .553.583.564.564 0 0 1-.562.556v-.017Zm31.273-8.314c-6.587 0-13.727-1.147-20.615-4.445a.573.573 0 0 1-.321-.546.57.57 0 0 1 .817-.48c21.886 10.482 46.441-1.303 46.685-1.438a.573.573 0 0 1 .822.473.568.568 0 0 1-.317.548c-.174.087-12.234 5.888-27.071 5.888Zm-8.32 54.585a.58.58 0 0 1-.514-.313c-1.402-2.799-1.014-10.269 1.59-15.696 6.53-13.641 21.067-9.526 28.877-7.318 2.025.574 3.775 1.069 4.524.986a4.68 4.68 0 0 0 3.409-1.877c2.146-2.942 1.106-8.256 1.093-8.335a.568.568 0 0 1 .448-.669.573.573 0 0 1 .67.448c.048.234 1.154 5.875-1.306 9.225a5.77 5.77 0 0 1-4.18 2.36c-.97.113-2.642-.365-4.958-1.021-8.015-2.264-21.42-6.084-27.542 6.714-2.425 5.062-2.856 12.167-1.593 14.696a.573.573 0 0 1-.257.765.596.596 0 0 1-.261.035Z"/><path fill="#2D1F04" d="M92.664 104.248a.568.568 0 0 1-.183-.03c-2.033-.678-1.741-2.004-1.54-3.068a4.609 4.609 0 0 0 .134-1.587c-.348-2.437-1.306-4.884-2.229-7.252a100.25 100.25 0 0 1-1.267-3.425.568.568 0 0 1 .799-.714.57.57 0 0 1 .28.354c.375 1.117.82 2.26 1.255 3.368.944 2.433 1.924 4.945 2.294 7.509a5.537 5.537 0 0 1-.152 1.977c-.214 1.047-.288 1.399.788 1.738a.568.568 0 0 1 .196.979.576.576 0 0 1-.375.134v.017ZM62.267 85.523c-7.759 0-15.212-1.517-19.936-3.794-1.694-.817-1.559-1.82-1.437-2.707a4.03 4.03 0 0 0 0-1.612.57.57 0 1 1 1.11-.265c.148.669.16 1.36.035 2.034-.108.82-.143 1.069.806 1.525 7.331 3.537 22.204 5.214 33.471 1.738a.571.571 0 0 1 .695.814.57.57 0 0 1-.36.272 49.526 49.526 0 0 1-14.384 1.995Zm-9.583 40.813a.429.429 0 0 1-.113 0 .568.568 0 0 1-.435-.669c1.502-7.366-1.468-8.804-4.911-10.464-4.102-1.981-8.751-4.228-4.833-17.165a.57.57 0 0 1 1.093.33c-3.64 12.007.187 13.854 4.236 15.81 3.544 1.712 7.214 3.476 5.534 11.733a.566.566 0 0 1-.57.425Zm-.688 34.33a1.184 1.184 0 0 1-.614-.187c-2.655-1.621-7.553-10.49-11.014-18.407-2.177-5.02-7.106-17.235-5.412-22.315a.574.574 0 0 1 .723-.36.568.568 0 0 1 .361.721c-1.075 3.216.984 11.455 5.372 21.497 3.81 8.691 8.425 16.539 10.532 17.874.562-.909.366-6.193.161-11.777-.161-4.345-.361-9.76-.361-15.696a.57.57 0 0 1 1.14 0c0 5.914.2 11.298.362 15.644.33 9.03.387 12.167-.767 12.863a.96.96 0 0 1-.483.143Zm46.729 4.941a.568.568 0 0 1-.327-1.039l2.987-2.098 2.612-31.406a.568.568 0 0 1 .612-.502.567.567 0 0 1 .524.594l-2.612 31.674a.586.586 0 0 1-.244.435l-3.222 2.238a.575.575 0 0 1-.33.104Zm-20.324 9.13a.565.565 0 0 1-.356-1.008l2.337-1.899c.915-13.115 2.234-32.592 2.22-34.173a.577.577 0 0 1 .023-.352.584.584 0 0 1 .666-.352c.535.126.535.126.17 6.018-.175 2.873-.436 6.875-.775 11.898-.58 8.648-1.185 17.287-1.185 17.287a.582.582 0 0 1-.209.404l-2.53 2.051a.56.56 0 0 1-.36.126Z"/><path fill="#2D1F04" d="M43.036 98.725a.545.545 0 0 1-.257-.061c-3.63-1.812-2.647-6.757-1.859-10.734.28-1.18.459-2.383.536-3.593a.569.569 0 0 1 .974-.403.569.569 0 0 1 .167.403 21.986 21.986 0 0 1-.558 3.815c-.714 3.598-1.602 8.07 1.25 9.495a.57.57 0 0 1-.253 1.078Zm19.392 24.4a.58.58 0 0 1-.362-.13c-2.233-1.821-3.156-2.364-6.421-3.103a.573.573 0 0 1-.473-.687.564.564 0 0 1 .268-.368.568.568 0 0 1 .453-.053c3.43.769 4.493 1.369 6.896 3.328a.572.572 0 0 1 .18.635.571.571 0 0 1-.541.378Z"/><path fill="#2D1F04" d="M52.906 134.41a.534.534 0 0 1-.126 0 .571.571 0 0 1-.435-.682c1.11-4.91 2.311-9.317 5.75-13.51a.57.57 0 1 1 .872.721c-3.288 4.011-4.402 8.105-5.517 13.037a.572.572 0 0 1-.544.434Zm-5.281-12.502a.54.54 0 0 1-.322-.1.561.561 0 0 1-.148-.791c1.306-1.916 4.206-2.342 5.055-2.429a.569.569 0 0 1 .563.295.577.577 0 0 1-.45.839c-.727.07-3.187.435-4.228 1.943a.57.57 0 0 1-.47.243Z"/><path fill="#2D1F04" d="M52.55 130.999a.568.568 0 0 1-.554-.434 36.353 36.353 0 0 1-.631-3.651c-.327-2.39-.666-4.867-1.937-6.874a.572.572 0 1 1 .966-.609c1.402 2.217 1.742 4.819 2.103 7.331.14 1.188.344 2.367.61 3.533a.57.57 0 0 1-.436.687.556.556 0 0 1-.122.017Zm10.613 15.727a.665.665 0 0 1-.126 0c-1.911-.435-3.957-.383-5.938-.335-.692 0-1.38.035-2.064.03a.57.57 0 1 1 0-1.138.712.712 0 0 1 .13 0c.632 0 1.268 0 1.908-.031 2.046-.047 4.166-.099 6.217.361a.572.572 0 0 1 .445.62.57.57 0 0 1-.572.506v-.013Z"/><path fill="#2D1F04" d="M55.845 159.362a.571.571 0 0 1-.396-.156c-.318-.308-.797-.769.762-6.979.748-2.985 1.624-5.923 1.741-6.231a.556.556 0 0 1 .279-.336.572.572 0 0 1 .77.241.57.57 0 0 1 .04.434c-.963 3.041-3.087 11.002-2.735 12.106a.569.569 0 0 1-.435.921h-.026Zm-11.502-11.22a.57.57 0 0 1-.444-.917.568.568 0 0 1 .352-.212 18.864 18.864 0 0 0 2.56-.687c1.933-.617 3.918-1.252 5.864-.648a.573.573 0 0 1 .373.715.571.571 0 0 1-.717.372c-1.584-.496-3.408.082-5.176.647-.882.307-1.786.548-2.704.722l-.108.008Z"/><path fill="#2D1F04" d="M52.197 160.462a.566.566 0 0 1-.392-.157c-1.742-1.66-3.144-6.083-4.354-13.545a.569.569 0 0 1 .697-.643.58.58 0 0 1 .353.257.56.56 0 0 1 .078.208c1.423 8.843 2.965 11.898 4.005 12.902a.569.569 0 0 1-.396.978h.008Z"/><path fill="#FFDB1F" d="M140.886 56.877c-.187-.56-.914-1.369-.457-1.825l.457 1.825Z"/><path fill="#FCBC3D" d="M53.581 98.603h.24c3.604 0 6.53.674 6.53 1.499 0 .826-2.921 1.504-6.53 1.504h-.24c-3.605 0-6.53-.674-6.53-1.504s2.925-1.499 6.53-1.499Zm13.771-72.518c.953.79 29.474 11.033 27.955 46.862 0 .265 2.146.704 2.146.191a118.966 118.966 0 0 0-1.17-13.436c-2.33-12.28-9.827-26.725-28.931-33.617Zm30.341 47.509c20.898 15.849 20.31 59.478-2.177 58.448 3.387 1.186 4.301.435 4.654.374 15.569-3.107 15.904-25.356 11.986-37.085-.253-.756 1.637-.678 1.28-1.916-.588-2.056-3.322-8.014-4.206-9.865-3.849-8.056-10.175-9.682-11.537-9.956Zm-18.286 51.873s-11.276.769-21.067 30.593l-.04.13c-.397 1.203-.79 2.454-1.18 3.755 16.179-37.302 24.52-33.057 24.52-33.057l-2.233-1.421ZM28.421 94.766c-1.911 10.299-3.627 14.34-2.804 20.089.361 2.512 1.306 6.036 3.823 6.866.208.057.42.099.635.126a5.089 5.089 0 0 1-1.401-.378c-1.65-.99-3.81-3.394-4.202-5.34-1.127-5.619.762-13.863 3.949-21.363Z" style="mix-blend-mode:lighten"/><path fill="#FCBC3D" d="M116.166 37.861c.313 4.22-6.322 43.651-6.871 45.776-.391 1.512-.396 1.456.832.843.126-.065.1-2.403.139-2.712.349-2.79 8.647-43.477 8.551-43.764-.096-.286-2.673-.438-2.651-.143ZM75.815 139.073l1.524 35.13.227-35.047-.127-10.395-2.503.93.88 9.382Zm21.316-5.167.592 32.47 1.18-32.765-.052-.391-1.72.834v-.148Zm-64.805-8.213.788 12.594 1.872.395 5.303 34.538-6.718-33.956-1.732-.808-.775-12.984" style="mix-blend-mode:lighten"/><path fill="#2D1F04" d="M53.237 137.022a.57.57 0 0 1-.57-.569c0-1.304 2.468-8.8 7.401-12.846 2.974-2.433 6.33-3.298 9.974-2.568 3.266.652 7.284 2.764 11.533 5.002 7.55 3.967 16.109 8.465 21.573 5.054 2.76-1.738 16.174-11.538 8.847-35.53a.568.568 0 0 1 .815-.693.567.567 0 0 1 .273.359c7.576 24.77-6.443 35.029-9.33 36.828-6.03 3.759-14.89-.899-22.709-5.01-4.175-2.199-8.12-4.276-11.228-4.893-3.291-.661-6.326.126-9.025 2.333-4.846 3.964-6.992 11.212-6.992 11.964a.568.568 0 0 1-.562.569Z"/><path fill="#2D1F04" d="M112.117 96.309a.56.56 0 0 1-.405-.17c-.388-.387-.044-.817.143-1.051.362-.435 1.037-1.304.736-2.243-3.126-9.903-10.658-19.937-18.481-19.02-1.528.178-6.61 1.073-7.902 5.058a.57.57 0 1 1-1.084-.348c1.502-4.628 7.153-5.649 8.85-5.836 3.919-.434 7.951 1.434 11.703 5.471 3.396 3.65 6.239 8.743 8.003 14.34.483 1.521-.51 2.764-.937 3.294l-.082.105a.534.534 0 0 1-.144.234.56.56 0 0 1-.4.166Zm.404-.97a.26.26 0 0 1 .048.057l-.048-.056Z"/><path fill="#2D1F04" d="M97.431 73.564a.57.57 0 0 1-.561-.574c.318-27.007-15.295-41.869-28.76-46.388a.572.572 0 0 1-.076-1.051.572.572 0 0 1 .437-.031c9.848 3.307 17.798 10.177 22.996 19.868 4.332 8.078 6.657 17.881 6.53 27.616a.568.568 0 0 1-.566.56Z" style="mix-blend-mode:multiply"/><path fill="#2D1F04" d="M73.15 28.618a.568.568 0 0 1-.247-.06 41.93 41.93 0 0 0-5.381-2.047c-1.193-.396-2.43-.805-3.649-1.282-.37-.144-2.268-.87-3.53-1.304.09.095.19.187.287.278a.569.569 0 0 1 .143.639.579.579 0 0 1-.561.347 6.257 6.257 0 0 1-.871-.1 23.446 23.446 0 0 0-1.567-.278 22.821 22.821 0 0 1-1.764-.326 22.011 22.011 0 0 1-5.603-2.033 2.499 2.499 0 0 1-.74-.722l-.035-.043c-.23.89.436 2.264.871 3.098l.091.187a.57.57 0 1 1-1.023.504l-.091-.182c-.557-1.117-1.398-2.808-.87-4.155.179-.323.452-.585.783-.751a.624.624 0 0 1 .514.021c.266.157.491.374.657.635.105.155.234.293.383.408a21.355 21.355 0 0 0 5.312 1.925c.553.13 1.127.222 1.684.309.28.043.566.087.85.139a1.268 1.268 0 0 1-.197-.752.794.794 0 0 1 .436-.595c.205-.105.4-.205 5.224 1.699 1.189.47 2.408.869 3.588 1.26a43.502 43.502 0 0 1 5.525 2.108.57.57 0 0 1-.253 1.082l.035-.009ZM52.184 131.773a.577.577 0 0 1-.536-.374c-2.678-7.196-5.486-11.255-8.581-12.407-2.76-1.025-5.36.405-7.876 1.786-1.72.943-3.344 1.834-4.876 1.782-2.29-.083-4.023-.965-5.16-2.607-4.2-6.141 1.172-21.446 3.484-27.981.361-1.026.648-1.838.77-2.273a.57.57 0 0 1 1.047-.12.568.568 0 0 1 .05.433c-.13.47-.409 1.251-.788 2.338-2.046 5.823-7.48 21.293-3.6 26.942.931 1.36 2.32 2.056 4.258 2.125 1.219.039 2.703-.773 4.284-1.642 2.612-1.434 5.577-3.042 8.825-1.852 3.422 1.269 6.448 5.55 9.251 13.076a.573.573 0 0 1-.335.734.648.648 0 0 1-.218.04Zm58.078-45.485h-.087a.572.572 0 0 1-.475-.652c2.808-17.752 7.859-43.238 8.738-47.658l-8.873-.239a.57.57 0 0 1-.553-.582.568.568 0 0 1 .173-.403.55.55 0 0 1 .411-.153l9.547.256a.577.577 0 0 1 .545.682c-.057.287-5.795 28.898-8.86 48.275a.573.573 0 0 1-.566.474Zm-11.894 79.671H95.04a.57.57 0 0 1-.57-.543l-1.175-30.032-15.347 3.872a.81.81 0 0 1-.14 0l-10.078.043a.587.587 0 0 1-.575-.565.574.574 0 0 1 .57-.573l10.014-.044 21.085-5.323a.571.571 0 0 1 .71.565l-.593 32.026a.572.572 0 0 1-.574.574Zm-2.795-1.139h2.216l.57-30.723-3.953 1 1.166 29.723Z"/><path fill="#2D1F04" d="M56.298 160.749a.712.712 0 0 1-.2-.026c-.37-.1-1.233-.339-2.064-7.536a166.58 166.58 0 0 1-.87-18.251.566.566 0 0 1 .57-.569.57.57 0 0 1 .57.569c0 13.367 1.206 22.197 2.011 24.309 1.742-2.977 3.383-6.401 5.107-9.995 5.342-11.185 10.884-22.749 20.593-22.749a.57.57 0 1 1 0 1.139c-9.008 0-14.367 11.233-19.561 22.097-1.829 3.829-3.553 7.444-5.43 10.56a.817.817 0 0 1-.726.452Z"/><path fill="#2D1F04" d="M73.717 175.198a.567.567 0 0 1-.562-.483l-5.403-35.199a.567.567 0 0 1 .481-.633.572.572 0 0 1 .647.464l5.325 34.677 3.265-.1-.662-34.951a.577.577 0 0 1 .97-.424.559.559 0 0 1 .17.402l.671 35.517a.572.572 0 0 1-.553.582l-4.353.126.004.022Zm-30.577-1.017-3.695-.131a.563.563 0 0 1-.54-.469l-5.978-34.973a.578.578 0 0 1 .566-.665l5.769.118a.566.566 0 0 1 .557.582.571.571 0 0 1-.583.556l-5.077-.1 5.782 33.83 2.656.092.748-24.857a.589.589 0 0 1 .588-.556.571.571 0 0 1 .553.586l-.766 25.435a.568.568 0 0 1-.57.552h-.01Z"/><path fill="#2D1F04" d="M32.06 139.199a.566.566 0 0 1-.57-.526l-.94-13.397a.552.552 0 0 1 .14-.413.575.575 0 0 1 .395-.195l3.884-.235a.574.574 0 0 1 .605.535.57.57 0 0 1-.535.604l-3.314.199.871 12.259 1.559-.087a.575.575 0 0 1 .603.537.565.565 0 0 1-.322.546.56.56 0 0 1-.216.056l-2.12.117h-.04ZM51.879 92.94c3.187.088 6.095.105 8.886.231 2.307.104 2.952 1.582 2.838 2.977-.152 1.916-1.354 3.229-3.46 3.911-.114.039-.227.061-.436.117 2.176 1.204 2.229 3.637 3.644 5.858l-4.79-.057a39.805 39.805 0 0 1-2.067-4.18c-.318-.739-.754-1.304-1.999-1.073a17.902 17.902 0 0 0-.413 5.24l-4.315-.03c-.413-4.367 1.345-8.756 2.112-12.993Zm3.844 2.725c-.191.87-.392 1.643-.636 2.608.945-.044 1.846-.04 2.752-.144a1.595 1.595 0 0 0 1.467-1.173c.166-.656-.157-1.169-.966-1.247-.81-.078-1.69-.04-2.617-.044Z"/><path fill="#2D1F04" d="m76.355 96.708-4.053.218c-.057-1.078-.662-1.665-1.785-1.69a1.665 1.665 0 0 0-1.715.938c-.066.621.357.834.87.965.94.243 1.907.46 2.87.725a10.95 10.95 0 0 1 1.562.557c3.21 1.39 2.495 5.066-.095 6.783a7.702 7.702 0 0 1-2.87 1.117 10.426 10.426 0 0 1-4.65-.248 3.964 3.964 0 0 1-2.978-4.411l3.897-.178c.053.257.088.496.148.722.34 1.242 1.685 1.864 3.048 1.381a1.597 1.597 0 0 0 1.171-1.216 1.07 1.07 0 0 0-.736-1.182 14.225 14.225 0 0 0-1.367-.435c-.944-.291-1.92-.504-2.795-.869-1.693-.7-2.342-1.908-1.994-3.342a4.778 4.778 0 0 1 3.57-3.428 9.594 9.594 0 0 1 5.33.039c1.832.552 2.633 1.655 2.572 3.554Zm-.914-42.773a.987.987 0 1 0 .002-1.975.987.987 0 0 0-.002 1.975Zm-31.982.383a.987.987 0 1 0 .002-1.975.987.987 0 0 0-.002 1.975Z"/></g><defs><clipPath id="a"><path fill="#fff" d="M0 0h165v183H0z"/></clipPath></defs></svg>