<?xml version="1.0" encoding="utf-8"?><svg xmlns="http://www.w3.org/2000/svg" xmlns:xlink="http://www.w3.org/1999/xlink"><symbol id="cart" fill="none" stroke="currentcolor" stroke-linecap="round" stroke-linejoin="round" stroke-width="2" viewBox="0 0 32 32"><path d="M6 6h24l-3 13H9m18 4H10L5 2H2"/><circle cx="25" cy="27" r="2"/><circle cx="12" cy="27" r="2"/></symbol><symbol viewBox="22.539 27 154.904 146" id="logo" fill="currentColor"><defs/><path d="m176.525 119.164-33.144-8.89V70.405C143.381 46.471 123.921 27 100 27S56.619 46.47 56.619 70.405v16.598l-32.464-8.707a1.316 1.316 0 0 0-.681 2.541l33.144 8.89v39.868C56.619 153.529 76.079 173 100 173s43.381-19.471 43.381-43.405v-16.598l32.465 8.707a1.316 1.316 0 0 0 .679-2.54zM59.247 70.405c0-22.483 18.281-40.775 40.752-40.775s40.752 18.292 40.752 40.775v36.923c-3.334-5.17-6.838-9.807-10.406-13.928 9.222-20.394-4.124-35.113-4.26-35.259a1.386 1.386 0 0 0-1.162-.434c-.452.053-.82.298-1.041.674-6.232 10.632-4.488 20.118-1.572 26.598-7.621-7.232-15.071-12.378-21.186-15.912 3.481-9.406-4.359-15.415-4.439-15.475a1.38 1.38 0 0 0-2.151.715c-1.497 5.064-.435 9.036.999 11.744-9.865-4.945-16.746-6.445-17.078-6.516-.75-.159-1.48.32-1.637 1.067a1.381 1.381 0 0 0 1.066 1.638c.233.05 15.106 3.371 32.311 16.158-14.408-2.013-23.349 7.627-23.449 7.739a1.38 1.38 0 0 0 .431 2.175c5.333 2.54 10.177 2.965 14.336 2.326 7.351-1.131 12.55-5.576 14.553-7.56 7.649 6.527 15.466 14.997 22.462 25.893L59.247 87.707V70.405zm67.096-1.26a1.38 1.38 0 0 0-1.445 1.316c-.259 5.575.619 11.856 1.468 16.403-3.165-5.372-6.443-14.597-1.081-25.282a30.528 30.528 0 0 1 3.89 7.528c2.174 6.186 2.25 12.546.248 18.958-.9-4.448-2.044-11.487-1.765-17.48a1.38 1.38 0 0 0-1.315-1.443zm-24.925 17.08c.306-.042.609-.087.913-.133 2.702-.416 5.346-1.019 7.604-1.613-4.318 2.776-11.217 5.386-19.661 2.158 2.985-2.458 10.339-7.218 20.698-5.31-2.719.774-6.342 1.672-9.927 2.159-.736.112-1.286.8-1.182 1.557a1.38 1.38 0 0 0 1.555 1.182zM99.026 66.43c-1.287-1.722-2.866-4.773-2.344-8.961 1.446 1.772 3.195 4.884 2.344 8.961zm41.726 63.164c0 22.483-18.281 40.775-40.752 40.775s-40.752-18.292-40.752-40.775V90.43l81.504 21.861v17.303z" data-color="1"/></symbol><symbol viewBox="20 20 160 160" id="present" fill="currentColor"><defs/><path d="M100 180a3.81 3.81 0 0 1-3.81-3.81V64.444a3.81 3.81 0 1 1 7.62 0V176.19A3.81 3.81 0 0 1 100 180z" data-color="1"/><path d="M176.19 108.889H23.81a3.81 3.81 0 0 1-3.81-3.81V64.444a3.81 3.81 0 0 1 3.81-3.81h152.38a3.81 3.81 0 0 1 3.81 3.81v40.635a3.809 3.809 0 0 1-3.81 3.81zM27.619 101.27h144.762V68.254H27.619v33.016z" data-color="1"/><path d="M100 68.254a3.81 3.81 0 0 1-3.81-3.81c0-19.961-9.886-36.825-21.587-36.825-9.102 0-16.508 7.405-16.508 16.508s7.406 16.508 16.508 16.508a3.81 3.81 0 1 1 0 7.62c-13.304 0-24.127-10.823-24.127-24.127S61.3 20 74.603 20c16.377 0 29.206 19.522 29.206 44.444a3.808 3.808 0 0 1-3.809 3.81z" data-color="1"/><path d="M125.397 68.254a3.81 3.81 0 1 1 0-7.62c9.102 0 16.508-7.405 16.508-16.508s-7.406-16.508-16.508-16.508c-11.701 0-21.587 16.864-21.587 36.825a3.81 3.81 0 1 1-7.62 0C96.19 39.522 109.02 20 125.397 20c13.304 0 24.127 10.823 24.127 24.127S138.7 68.254 125.397 68.254zM155.873 180H44.127c-7.702 0-13.968-6.266-13.968-13.968V105.08a3.81 3.81 0 1 1 7.62 0v60.952a6.356 6.356 0 0 0 6.349 6.349h111.746a6.356 6.356 0 0 0 6.349-6.349V105.08a3.81 3.81 0 1 1 7.62 0v60.952c-.002 7.702-6.268 13.968-13.97 13.968z" data-color="1"/></symbol><symbol viewBox="5 5 14 14" id="search" fill="currentColor"><path d="m15.683 14.6 3.265 3.265a.2.2 0 0 1 0 .282l-.8.801a.2.2 0 0 1-.283 0l-3.266-3.265a5.961 5.961 0 1 1 1.084-1.084zm-4.727 1.233a4.877 4.877 0 1 0 0-9.754 4.877 4.877 0 0 0 0 9.754z"/></symbol><symbol id="profile" viewBox="0 0 50 50"><path fill="currentColor" d="M25 2.008c-12.69 0-23 10.31-23 23 0 12.104 9.381 22.035 21.26 22.928l.07.005c.552.04 1.108.067 1.67.067.562 0 1.118-.027 1.67-.067l.07-.005C38.62 47.043 48 37.112 48 25.008c0-12.69-10.31-23-23-23zm0 2c11.61 0 21 9.39 21 21a20.923 20.923 0 0 1-6.01 14.703c-1.589-1.157-3.553-1.848-5.312-2.465-2.084-.73-4.056-1.422-4.602-2.625-.086-1.027-.078-1.829-.07-2.75l.002-.39c.888-.846 2.005-2.629 2.387-4.276.66-.352 1.467-1.196 1.709-3.217.12-1.003-.165-1.78-.565-2.3.54-1.855 1.614-6.552-.268-9.583-.796-1.28-1.997-2.089-3.576-2.408C28.808 8.6 27.135 8 24.896 8c-3.4.063-5.894 1.105-7.406 3.096-1.783 2.35-2.12 5.9-1.004 10.558-.413.521-.71 1.31-.588 2.332.243 2.021 1.047 2.865 1.707 3.217.382 1.65 1.498 3.432 2.387 4.277l.002.381c.008.925.016 1.73-.07 2.76-.548 1.206-2.53 1.906-4.623 2.645-1.75.617-3.701 1.309-5.287 2.45A20.925 20.925 0 0 1 4 25.009c0-11.61 9.39-21 21-21z"/></symbol><symbol id="logout" viewBox="0 0 48 48"><path fill="currentColor" d="M12 6c-3.29 0-6 2.71-6 6v24c0 3.29 2.71 6 6 6h17c2.776 0 5.247-1.82 5.938-4.502a2 2 0 1 0-3.876-.996C30.866 37.269 29.953 38 29 38H12c-1.128 0-2-.872-2-2V12c0-1.128.872-2 2-2h17c.952 0 1.865.73 2.063 1.498a2 2 0 1 0 3.875-.996C34.248 7.819 31.776 6 29 6H12zm21.979 9.98a2 2 0 0 0-1.393 3.434L35.172 22H17a2 2 0 1 0 0 4h18.172l-2.586 2.586a2 2 0 1 0 2.828 2.828l6-6a2 2 0 0 0 0-2.828l-6-6a2 2 0 0 0-1.435-.606z"/></symbol><symbol id="rsschool" viewBox="0 0 600 216" fill="currentColor"><path d="M332.5 1c-13 2-21 6.4-26 14.4-2.4 4-3 6.2-3.3 12-.3 6.3 0 7.7 2.5 12.6 5 9.6 10.6 12.5 40 20.9 11.8 3.5 15.5 10.1 9.1 16.5-8.1 8.1-22.8 4-26.2-7.2l-1.3-4.7-6.9.3c-3.8.1-10.2.5-14.2.8l-7.3.6.7 3.6c.8 4.9 4.6 13.3 8 17.7 6 7.9 17 11.5 35.4 11.5 22.1 0 34.4-5.9 40.7-19.6 5.2-11.5 3.7-22.9-4.3-31.4-5.7-6.1-12.9-9.3-30.3-13.6-18.1-4.5-21.9-7.5-17.1-13.7 5.5-6.9 20.5-3.3 22.8 5.6.9 3.6-.1 3.5 20.3 2.1l8.6-.6-.9-4c-1.3-6.1-3.2-10.1-6.6-14-7.3-8.3-26-12.5-43.7-9.8zM7 50.5V99h30V58.7l3.7.6c2.1.4 4.9 1.5 6.3 2.5 1.4 1.1 6.8 9.8 12 19.5l9.5 17.6 16.8.1c9.3 0 16.7-.3 16.5-.8-.1-.4-3.4-6.8-7.2-14.2-8.4-16.6-13.1-23.1-18.7-25.8l-4.2-2.1 2.9-1.1c7.3-2.7 8.7-3.6 12.9-8.2 5.1-5.7 6.5-9.7 6.5-18.9 0-13.2-7.9-22.5-21.3-24.8C69 2.5 53.9 2 36.7 2H7v48.5zm53.7-26.9c3.8 2.8 4.7 7 2.5 11.4-2.2 4.5-6.1 5.9-17.4 5.9L37 41V20.8l10.5.4c8.5.3 10.9.7 13.2 2.4zM27.5 117.4c-6.8 1.7-12.4 4.8-16.1 8.8-5.4 5.6-6.9 9.5-6.9 17.8 0 6.4.4 8.2 2.7 12.1 5 8.4 13.3 13.1 32.1 17.9 13.3 3.3 14.7 4 17.6 7.6 5.5 6.9-.8 15.4-11.4 15.4-7.6 0-13.7-4.6-16-12.1-.7-2.6-1.8-4.3-2.6-4.2-.8.1-7.2.5-14.2.8-11.2.6-12.7.9-12.3 2.4.2.9.8 3.2 1.1 5.1 1.1 5.4 5.2 12.7 9.4 16.9 10.1 10.1 37.9 13 56.7 6 12.6-4.7 21.1-17.7 20.1-30.9-.5-8.1-3.2-13.5-9.3-18.8-5.5-4.9-11.4-7.3-29.4-11.8-10.7-2.7-14-4-15.8-6-3.6-4.1-1.5-8.7 4.8-10.4 7.8-2.1 15.8 1.7 18 8.6l1.1 3.3 9.7-.5c5.3-.3 11.6-.7 13.9-1 4.1-.5 4.2-.6 3.6-3.7-1-5.7-5.3-13.6-9.1-16.7-6.9-5.6-13.1-7.3-28.7-7.6-9.2-.2-15.7.1-19 1zM141.1 117.6C120.8 123 109 140.5 109 165c0 16.3 4.7 28.8 14.4 38.6 7.2 7.2 13.1 9.8 26.7 11.6 23.1 3 40.7-4.7 48.8-21.5 5.6-11.6 6.1-10.8-8.2-15-6.9-2-12.7-3.7-13-3.7-.3 0-1.1 1.7-1.7 3.7-3.2 10-8.8 14.3-18.5 14.3-13.8 0-19.2-8.9-18.3-30.4.5-11.7 2.5-16.7 8.4-21.2 7.5-5.7 21.1-3.7 25.2 3.7 3.7 6.6 2.6 6.4 16.3 3.4 6.8-1.5 12.6-2.9 12.8-3.1.2-.2-1-3.2-2.7-6.8-5.2-11.1-14.7-18.9-26.4-21.6-6.4-1.4-25.4-1.1-31.7.6zM371.3 117.5c-17.1 4.6-29.3 18.4-32.4 36.8-2.4 14.8.6 32.2 7.6 42.4 7.3 10.8 17.3 16.3 33.6 18.5 10 1.3 22.4.1 30.2-2.9 7-2.7 14.4-8.2 18.3-13.4l3.6-4.9 3.9 5c7.6 9.7 16.4 14.1 31.8 16.1 11.8 1.6 23.9 0 33.3-4.3 7.8-3.5 16.7-12.1 19.8-19l2-4.3V214h77v-24h-47v-73h-30v13.2l-.1 13.3-3.1-5.8c-7.9-14.6-22.3-21.7-43.8-21.7-19.4 0-32.2 5.6-41.9 18.5-1.7 2.3-2.4 2.7-2.8 1.5-.4-.8-2.8-3.8-5.4-6.6-5.4-5.7-12.5-9.6-21.4-11.9-7.5-1.9-26.1-1.9-33.2 0zm25.2 22.4c8.6 3.9 11.9 10.9 11.8 25.6 0 19.4-6.1 27.7-20.3 27.7-8.4 0-13.4-3.2-17.6-11.2-2.3-4.4-3.1-20.9-1.5-27.8 3.4-13.3 15.7-19.8 27.6-14.3zm88.1 0c8.2 3.7 11.7 11.4 11.6 25.6-.1 14.7-3 21.9-10.5 25.8-4.3 2.2-14.1 2.6-17.8.7-4.8-2.5-9-7.4-10.4-12.4-1.7-5.7-2-21.3-.5-26.7 3.4-12.2 16.1-18.2 27.6-13zM227 165.5V214h29v-39h33v39h30v-97h-30v34h-33v-34h-29v48.5z"/></symbol></svg>